<svg width="328" height="203" viewBox="0 0 328 203" fill="none" xmlns="http://www.w3.org/2000/svg">
<path d="M4.564 20.072C4.444 20.072 4.352 20.04 4.288 19.976C4.224 19.904 4.192 19.808 4.192 19.688V12.2H1.324C1.212 12.2 1.124 12.168 1.06 12.104C0.996 12.04 0.964 11.96 0.964 11.864C0.964 11.76 0.996 11.68 1.06 11.624C1.124 11.568 1.212 11.54 1.324 11.54H7.816C7.928 11.54 8.012 11.568 8.068 11.624C8.132 11.68 8.164 11.76 8.164 11.864C8.164 11.968 8.132 12.052 8.068 12.116C8.012 12.172 7.928 12.2 7.816 12.2H4.936V19.688C4.936 19.808 4.904 19.904 4.84 19.976C4.784 20.04 4.692 20.072 4.564 20.072ZM9.97094 20.096C9.57894 20.096 9.22694 20.02 8.91494 19.868C8.61094 19.716 8.36694 19.508 8.18294 19.244C8.00694 18.98 7.91894 18.684 7.91894 18.356C7.91894 17.924 8.02694 17.584 8.24294 17.336C8.45894 17.088 8.82294 16.916 9.33494 16.82C9.84694 16.716 10.5509 16.664 11.4469 16.664H11.9629V17.204H11.4589C10.7389 17.204 10.1749 17.236 9.76694 17.3C9.36694 17.356 9.08694 17.464 8.92694 17.624C8.76694 17.784 8.68694 18.008 8.68694 18.296C8.68694 18.656 8.81094 18.948 9.05894 19.172C9.30694 19.396 9.64294 19.508 10.0669 19.508C10.4109 19.508 10.7109 19.428 10.9669 19.268C11.2309 19.1 11.4389 18.872 11.5909 18.584C11.7429 18.296 11.8189 17.968 11.8189 17.6V16.232C11.8189 15.696 11.7109 15.308 11.4949 15.068C11.2789 14.82 10.9349 14.696 10.4629 14.696C10.1589 14.696 9.86294 14.736 9.57494 14.816C9.29494 14.896 8.99494 15.024 8.67494 15.2C8.58694 15.248 8.50694 15.264 8.43494 15.248C8.37094 15.232 8.31894 15.2 8.27894 15.152C8.24694 15.104 8.22294 15.048 8.20694 14.984C8.19894 14.912 8.21094 14.844 8.24294 14.78C8.27494 14.716 8.33094 14.664 8.41094 14.624C8.74694 14.44 9.08694 14.304 9.43094 14.216C9.78294 14.12 10.1229 14.072 10.4509 14.072C10.9229 14.072 11.3109 14.152 11.6149 14.312C11.9269 14.472 12.1549 14.712 12.2989 15.032C12.4509 15.352 12.5269 15.764 12.5269 16.268V19.7C12.5269 19.82 12.4989 19.912 12.4429 19.976C12.3869 20.04 12.3029 20.072 12.1909 20.072C12.0789 20.072 11.9909 20.04 11.9269 19.976C11.8629 19.912 11.8309 19.82 11.8309 19.7V18.596H11.9509C11.8789 18.908 11.7509 19.176 11.5669 19.4C11.3829 19.624 11.1549 19.796 10.8829 19.916C10.6109 20.036 10.3069 20.096 9.97094 20.096ZM14.8125 20.072C14.6925 20.072 14.6005 20.04 14.5365 19.976C14.4725 19.912 14.4405 19.82 14.4405 19.7V11.84C14.4405 11.712 14.4725 11.62 14.5365 11.564C14.6005 11.5 14.6925 11.468 14.8125 11.468C14.9245 11.468 15.0125 11.5 15.0765 11.564C15.1405 11.62 15.1725 11.712 15.1725 11.84V16.82H15.1965L17.8845 14.36C17.9725 14.28 18.0485 14.216 18.1125 14.168C18.1845 14.12 18.2765 14.096 18.3885 14.096C18.4845 14.096 18.5605 14.124 18.6165 14.18C18.6725 14.236 18.6965 14.304 18.6885 14.384C18.6885 14.456 18.6485 14.536 18.5685 14.624L15.7125 17.228V16.76L18.8205 19.52C18.9165 19.608 18.9645 19.696 18.9645 19.784C18.9725 19.864 18.9485 19.932 18.8925 19.988C18.8365 20.044 18.7605 20.072 18.6645 20.072C18.5605 20.072 18.4725 20.048 18.4005 20C18.3285 19.96 18.2405 19.892 18.1365 19.796L15.1965 17.204H15.1725V19.7C15.1725 19.948 15.0525 20.072 14.8125 20.072ZM22.6209 20.096C22.0209 20.096 21.5049 19.976 21.0729 19.736C20.6409 19.496 20.3089 19.152 20.0769 18.704C19.8449 18.256 19.7289 17.724 19.7289 17.108C19.7289 16.5 19.8449 15.972 20.0769 15.524C20.3089 15.068 20.6289 14.712 21.0369 14.456C21.4529 14.2 21.9289 14.072 22.4649 14.072C22.8569 14.072 23.2009 14.14 23.4969 14.276C23.8009 14.404 24.0569 14.592 24.2649 14.84C24.4809 15.08 24.6449 15.376 24.7569 15.728C24.8689 16.072 24.9249 16.464 24.9249 16.904C24.9249 17.016 24.8929 17.1 24.8289 17.156C24.7729 17.212 24.6929 17.24 24.5889 17.24H20.2569V16.7H24.4689L24.2769 16.856C24.2769 16.392 24.2089 16 24.0729 15.68C23.9369 15.352 23.7329 15.1 23.4609 14.924C23.1969 14.748 22.8689 14.66 22.4769 14.66C22.0369 14.66 21.6649 14.764 21.3609 14.972C21.0569 15.172 20.8289 15.452 20.6769 15.812C20.5249 16.164 20.4489 16.572 20.4489 17.036V17.096C20.4489 17.864 20.6369 18.456 21.0129 18.872C21.3889 19.28 21.9169 19.484 22.5969 19.484C22.8929 19.484 23.1769 19.444 23.4489 19.364C23.7289 19.284 24.0009 19.148 24.2649 18.956C24.3449 18.9 24.4209 18.872 24.4929 18.872C24.5729 18.872 24.6369 18.892 24.6849 18.932C24.7409 18.972 24.7769 19.024 24.7929 19.088C24.8169 19.144 24.8129 19.208 24.7809 19.28C24.7569 19.344 24.7049 19.404 24.6249 19.46C24.3689 19.668 24.0609 19.828 23.7009 19.94C23.3409 20.044 22.9809 20.096 22.6209 20.096ZM31.2405 20.096C30.8485 20.096 30.4965 20.02 30.1845 19.868C29.8805 19.716 29.6365 19.508 29.4525 19.244C29.2765 18.98 29.1885 18.684 29.1885 18.356C29.1885 17.924 29.2965 17.584 29.5125 17.336C29.7285 17.088 30.0925 16.916 30.6045 16.82C31.1165 16.716 31.8205 16.664 32.7165 16.664H33.2325V17.204H32.7285C32.0085 17.204 31.4445 17.236 31.0365 17.3C30.6365 17.356 30.3565 17.464 30.1965 17.624C30.0365 17.784 29.9565 18.008 29.9565 18.296C29.9565 18.656 30.0805 18.948 30.3285 19.172C30.5765 19.396 30.9125 19.508 31.3365 19.508C31.6805 19.508 31.9805 19.428 32.2365 19.268C32.5005 19.1 32.7085 18.872 32.8605 18.584C33.0125 18.296 33.0885 17.968 33.0885 17.6V16.232C33.0885 15.696 32.9805 15.308 32.7645 15.068C32.5485 14.82 32.2045 14.696 31.7325 14.696C31.4285 14.696 31.1325 14.736 30.8445 14.816C30.5645 14.896 30.2645 15.024 29.9445 15.2C29.8565 15.248 29.7765 15.264 29.7045 15.248C29.6405 15.232 29.5885 15.2 29.5485 15.152C29.5165 15.104 29.4925 15.048 29.4765 14.984C29.4685 14.912 29.4805 14.844 29.5125 14.78C29.5445 14.716 29.6005 14.664 29.6805 14.624C30.0165 14.44 30.3565 14.304 30.7005 14.216C31.0525 14.12 31.3925 14.072 31.7205 14.072C32.1925 14.072 32.5805 14.152 32.8845 14.312C33.1965 14.472 33.4245 14.712 33.5685 15.032C33.7205 15.352 33.7965 15.764 33.7965 16.268V19.7C33.7965 19.82 33.7685 19.912 33.7125 19.976C33.6565 20.04 33.5725 20.072 33.4605 20.072C33.3485 20.072 33.2605 20.04 33.1965 19.976C33.1325 19.912 33.1005 19.82 33.1005 19.7V18.596H33.2205C33.1485 18.908 33.0205 19.176 32.8365 19.4C32.6525 19.624 32.4245 19.796 32.1525 19.916C31.8805 20.036 31.5765 20.096 31.2405 20.096ZM43.3414 22.232C43.2294 22.232 43.1414 22.2 43.0774 22.136C43.0134 22.072 42.9814 21.98 42.9814 21.86V18.56H43.1134C42.9854 19.024 42.7294 19.396 42.3454 19.676C41.9614 19.956 41.4974 20.096 40.9534 20.096C40.4254 20.096 39.9654 19.976 39.5734 19.736C39.1894 19.488 38.8934 19.14 38.6854 18.692C38.4774 18.236 38.3734 17.7 38.3734 17.084C38.3734 16.468 38.4774 15.936 38.6854 15.488C38.9014 15.04 39.2014 14.692 39.5854 14.444C39.9774 14.196 40.4334 14.072 40.9534 14.072C41.4974 14.072 41.9614 14.212 42.3454 14.492C42.7294 14.772 42.9854 15.152 43.1134 15.632L42.9814 15.704V14.48C42.9814 14.352 43.0134 14.256 43.0774 14.192C43.1414 14.128 43.2334 14.096 43.3534 14.096C43.4654 14.096 43.5534 14.128 43.6174 14.192C43.6814 14.256 43.7134 14.352 43.7134 14.48V21.86C43.7134 21.98 43.6814 22.072 43.6174 22.136C43.5534 22.2 43.4614 22.232 43.3414 22.232ZM41.0494 19.484C41.4494 19.484 41.7934 19.392 42.0814 19.208C42.3774 19.016 42.6014 18.74 42.7534 18.38C42.9134 18.02 42.9934 17.588 42.9934 17.084C42.9934 16.324 42.8174 15.736 42.4654 15.32C42.1214 14.904 41.6494 14.696 41.0494 14.696C40.6574 14.696 40.3134 14.792 40.0174 14.984C39.7294 15.168 39.5054 15.44 39.3454 15.8C39.1934 16.152 39.1174 16.58 39.1174 17.084C39.1174 17.852 39.2934 18.444 39.6454 18.86C39.9974 19.276 40.4654 19.484 41.0494 19.484ZM47.6878 20.096C47.2238 20.096 46.8358 20.012 46.5238 19.844C46.2198 19.676 45.9918 19.424 45.8398 19.088C45.6878 18.752 45.6118 18.336 45.6118 17.84V14.48C45.6118 14.352 45.6438 14.256 45.7078 14.192C45.7718 14.128 45.8638 14.096 45.9838 14.096C46.0958 14.096 46.1838 14.128 46.2478 14.192C46.3118 14.256 46.3438 14.352 46.3438 14.48V17.804C46.3438 18.364 46.4598 18.784 46.6918 19.064C46.9238 19.336 47.2878 19.472 47.7838 19.472C48.3278 19.472 48.7678 19.292 49.1038 18.932C49.4398 18.564 49.6078 18.084 49.6078 17.492V14.48C49.6078 14.352 49.6398 14.256 49.7038 14.192C49.7678 14.128 49.8598 14.096 49.9798 14.096C50.0918 14.096 50.1798 14.128 50.2438 14.192C50.3078 14.256 50.3398 14.352 50.3398 14.48V19.7C50.3398 19.948 50.2238 20.072 49.9918 20.072C49.8798 20.072 49.7918 20.04 49.7278 19.976C49.6638 19.912 49.6318 19.82 49.6318 19.7V18.512L49.7758 18.596C49.6238 19.084 49.3598 19.456 48.9838 19.712C48.6078 19.968 48.1758 20.096 47.6878 20.096ZM52.6406 20.048C52.5206 20.048 52.4286 20.012 52.3646 19.94C52.3006 19.868 52.2686 19.772 52.2686 19.652V14.516C52.2686 14.388 52.3006 14.292 52.3646 14.228C52.4286 14.164 52.5206 14.132 52.6406 14.132C52.7526 14.132 52.8406 14.164 52.9046 14.228C52.9686 14.292 53.0006 14.388 53.0006 14.516V19.652C53.0006 19.772 52.9686 19.868 52.9046 19.94C52.8486 20.012 52.7606 20.048 52.6406 20.048ZM52.6406 12.68C52.4726 12.68 52.3406 12.636 52.2446 12.548C52.1566 12.46 52.1126 12.336 52.1126 12.176C52.1126 12.016 52.1566 11.896 52.2446 11.816C52.3406 11.728 52.4726 11.684 52.6406 11.684C52.8086 11.684 52.9366 11.728 53.0246 11.816C53.1206 11.896 53.1686 12.016 53.1686 12.176C53.1686 12.336 53.1206 12.46 53.0246 12.548C52.9366 12.636 52.8086 12.68 52.6406 12.68ZM54.9408 20C54.8608 20 54.7928 19.984 54.7368 19.952C54.6888 19.912 54.6528 19.864 54.6288 19.808C54.6128 19.744 54.6128 19.676 54.6288 19.604C54.6528 19.524 54.6968 19.448 54.7607 19.376L58.2768 14.564V14.768H54.8928C54.7888 14.768 54.7088 14.744 54.6528 14.696C54.6048 14.64 54.5808 14.564 54.5808 14.468C54.5808 14.38 54.6048 14.312 54.6528 14.264C54.7088 14.208 54.7888 14.18 54.8928 14.18H58.6368C58.7328 14.18 58.8088 14.2 58.8648 14.24C58.9288 14.272 58.9688 14.316 58.9848 14.372C59.0088 14.428 59.0128 14.492 58.9968 14.564C58.9808 14.636 58.9448 14.708 58.8888 14.78L55.3248 19.628V19.412H58.8648C59.0728 19.412 59.1768 19.508 59.1768 19.7C59.1768 19.796 59.1488 19.872 59.0928 19.928C59.0368 19.976 58.9608 20 58.8648 20H54.9408ZM65.656 20.096C65.224 20.096 64.864 20.016 64.576 19.856C64.288 19.696 64.072 19.468 63.928 19.172C63.784 18.868 63.712 18.496 63.712 18.056V14.768H62.824C62.72 14.768 62.636 14.744 62.572 14.696C62.508 14.64 62.476 14.564 62.476 14.468C62.476 14.38 62.508 14.312 62.572 14.264C62.636 14.208 62.72 14.18 62.824 14.18H63.712V12.68C63.712 12.552 63.744 12.46 63.808 12.404C63.872 12.34 63.964 12.308 64.084 12.308C64.196 12.308 64.284 12.34 64.348 12.404C64.412 12.46 64.444 12.552 64.444 12.68V14.18H66.064C66.176 14.18 66.26 14.208 66.316 14.264C66.372 14.312 66.4 14.38 66.4 14.468C66.4 14.564 66.372 14.64 66.316 14.696C66.26 14.744 66.176 14.768 66.064 14.768H64.444V17.96C64.444 18.448 64.544 18.82 64.744 19.076C64.944 19.332 65.276 19.46 65.74 19.46C65.9 19.46 66.032 19.444 66.136 19.412C66.248 19.372 66.34 19.352 66.412 19.352C66.468 19.352 66.516 19.376 66.556 19.424C66.604 19.472 66.628 19.548 66.628 19.652C66.628 19.716 66.612 19.78 66.58 19.844C66.556 19.908 66.508 19.948 66.436 19.964C66.348 19.996 66.228 20.024 66.076 20.048C65.924 20.08 65.784 20.096 65.656 20.096ZM69.7369 20.096C69.1929 20.096 68.7209 19.972 68.3209 19.724C67.9209 19.476 67.6089 19.128 67.3849 18.68C67.1689 18.232 67.0609 17.7 67.0609 17.084C67.0609 16.628 67.1209 16.216 67.2409 15.848C67.3689 15.48 67.5489 15.164 67.7809 14.9C68.0209 14.628 68.3049 14.424 68.6329 14.288C68.9689 14.144 69.3369 14.072 69.7369 14.072C70.2889 14.072 70.7649 14.196 71.1649 14.444C71.5649 14.692 71.8729 15.044 72.0889 15.5C72.3129 15.948 72.4249 16.476 72.4249 17.084C72.4249 17.548 72.3609 17.964 72.2329 18.332C72.1129 18.7 71.9329 19.016 71.6929 19.28C71.4609 19.544 71.1809 19.748 70.8529 19.892C70.5249 20.028 70.1529 20.096 69.7369 20.096ZM69.7369 19.484C70.1369 19.484 70.4809 19.392 70.7689 19.208C71.0649 19.016 71.2889 18.74 71.4409 18.38C71.6009 18.02 71.6809 17.588 71.6809 17.084C71.6809 16.324 71.5049 15.736 71.1529 15.32C70.8089 14.904 70.3369 14.696 69.7369 14.696C69.3449 14.696 69.0009 14.792 68.7049 14.984C68.4169 15.168 68.1929 15.44 68.0329 15.8C67.8809 16.152 67.8049 16.58 67.8049 17.084C67.8049 17.852 67.9809 18.444 68.3329 18.86C68.6849 19.276 69.1529 19.484 69.7369 19.484ZM79.5389 22.256C79.1069 22.256 78.6869 22.2 78.2789 22.088C77.8789 21.984 77.5149 21.812 77.1869 21.572C77.1229 21.532 77.0789 21.48 77.0549 21.416C77.0389 21.352 77.0389 21.288 77.0549 21.224C77.0709 21.168 77.0989 21.116 77.1389 21.068C77.1869 21.02 77.2389 20.992 77.2949 20.984C77.3589 20.976 77.4229 20.988 77.4869 21.02C77.8389 21.252 78.1749 21.412 78.4949 21.5C78.8229 21.596 79.1629 21.644 79.5149 21.644C80.0989 21.644 80.5429 21.48 80.8469 21.152C81.1509 20.832 81.3029 20.372 81.3029 19.772V18.284H81.4229C81.3029 18.78 81.0469 19.168 80.6549 19.448C80.2629 19.728 79.7989 19.868 79.2629 19.868C78.7269 19.868 78.2629 19.748 77.8709 19.508C77.4789 19.26 77.1749 18.92 76.9589 18.488C76.7509 18.048 76.6469 17.54 76.6469 16.964C76.6469 16.532 76.7069 16.14 76.8269 15.788C76.9469 15.436 77.1189 15.132 77.3429 14.876C77.5749 14.62 77.8509 14.424 78.1709 14.288C78.4909 14.144 78.8549 14.072 79.2629 14.072C79.7989 14.072 80.2629 14.216 80.6549 14.504C81.0469 14.784 81.2989 15.164 81.4109 15.644L81.2909 15.716V14.48C81.2909 14.352 81.3229 14.256 81.3869 14.192C81.4509 14.128 81.5389 14.096 81.6509 14.096C81.7709 14.096 81.8589 14.128 81.9149 14.192C81.9789 14.256 82.0109 14.352 82.0109 14.48V19.664C82.0109 20.52 81.8029 21.164 81.3869 21.596C80.9709 22.036 80.3549 22.256 79.5389 22.256ZM79.3469 19.244C79.7469 19.244 80.0909 19.152 80.3789 18.968C80.6749 18.776 80.9029 18.512 81.0629 18.176C81.2229 17.832 81.3029 17.428 81.3029 16.964C81.3029 16.268 81.1269 15.716 80.7749 15.308C80.4229 14.9 79.9469 14.696 79.3469 14.696C78.9469 14.696 78.5989 14.788 78.3029 14.972C78.0069 15.156 77.7789 15.42 77.6189 15.764C77.4669 16.1 77.3909 16.5 77.3909 16.964C77.3909 17.66 77.5669 18.216 77.9189 18.632C78.2709 19.04 78.7469 19.244 79.3469 19.244ZM86.4764 20.096C85.8764 20.096 85.3604 19.976 84.9284 19.736C84.4964 19.496 84.1644 19.152 83.9324 18.704C83.7004 18.256 83.5844 17.724 83.5844 17.108C83.5844 16.5 83.7004 15.972 83.9324 15.524C84.1644 15.068 84.4844 14.712 84.8924 14.456C85.3084 14.2 85.7844 14.072 86.3204 14.072C86.7124 14.072 87.0564 14.14 87.3524 14.276C87.6564 14.404 87.9124 14.592 88.1204 14.84C88.3364 15.08 88.5004 15.376 88.6124 15.728C88.7244 16.072 88.7804 16.464 88.7804 16.904C88.7804 17.016 88.7484 17.1 88.6844 17.156C88.6284 17.212 88.5484 17.24 88.4444 17.24H84.1124V16.7H88.3244L88.1324 16.856C88.1324 16.392 88.0644 16 87.9284 15.68C87.7924 15.352 87.5884 15.1 87.3164 14.924C87.0524 14.748 86.7244 14.66 86.3324 14.66C85.8924 14.66 85.5204 14.764 85.2164 14.972C84.9124 15.172 84.6844 15.452 84.5324 15.812C84.3804 16.164 84.3044 16.572 84.3044 17.036V17.096C84.3044 17.864 84.4924 18.456 84.8684 18.872C85.2444 19.28 85.7724 19.484 86.4524 19.484C86.7484 19.484 87.0324 19.444 87.3044 19.364C87.5844 19.284 87.8564 19.148 88.1204 18.956C88.2004 18.9 88.2764 18.872 88.3484 18.872C88.4284 18.872 88.4924 18.892 88.5404 18.932C88.5964 18.972 88.6324 19.024 88.6484 19.088C88.6724 19.144 88.6684 19.208 88.6364 19.28C88.6124 19.344 88.5604 19.404 88.4804 19.46C88.2244 19.668 87.9164 19.828 87.5564 19.94C87.1964 20.044 86.8364 20.096 86.4764 20.096ZM92.4685 20.096C92.0365 20.096 91.6765 20.016 91.3885 19.856C91.1005 19.696 90.8845 19.468 90.7405 19.172C90.5965 18.868 90.5245 18.496 90.5245 18.056V14.768H89.6365C89.5325 14.768 89.4485 14.744 89.3845 14.696C89.3205 14.64 89.2885 14.564 89.2885 14.468C89.2885 14.38 89.3205 14.312 89.3845 14.264C89.4485 14.208 89.5325 14.18 89.6365 14.18H90.5245V12.68C90.5245 12.552 90.5565 12.46 90.6205 12.404C90.6845 12.34 90.7765 12.308 90.8965 12.308C91.0085 12.308 91.0965 12.34 91.1605 12.404C91.2245 12.46 91.2565 12.552 91.2565 12.68V14.18H92.8765C92.9885 14.18 93.0725 14.208 93.1285 14.264C93.1845 14.312 93.2125 14.38 93.2125 14.468C93.2125 14.564 93.1845 14.64 93.1285 14.696C93.0725 14.744 92.9885 14.768 92.8765 14.768H91.2565V17.96C91.2565 18.448 91.3565 18.82 91.5565 19.076C91.7565 19.332 92.0885 19.46 92.5525 19.46C92.7125 19.46 92.8445 19.444 92.9485 19.412C93.0605 19.372 93.1525 19.352 93.2245 19.352C93.2805 19.352 93.3285 19.376 93.3685 19.424C93.4165 19.472 93.4405 19.548 93.4405 19.652C93.4405 19.716 93.4245 19.78 93.3925 19.844C93.3685 19.908 93.3205 19.948 93.2485 19.964C93.1605 19.996 93.0405 20.024 92.8885 20.048C92.7365 20.08 92.5965 20.096 92.4685 20.096ZM3.76 34.096C3.368 34.096 3.016 34.02 2.704 33.868C2.4 33.716 2.156 33.508 1.972 33.244C1.796 32.98 1.708 32.684 1.708 32.356C1.708 31.924 1.816 31.584 2.032 31.336C2.248 31.088 2.612 30.916 3.124 30.82C3.636 30.716 4.34 30.664 5.236 30.664H5.752V31.204H5.248C4.528 31.204 3.964 31.236 3.556 31.3C3.156 31.356 2.876 31.464 2.716 31.624C2.556 31.784 2.476 32.008 2.476 32.296C2.476 32.656 2.6 32.948 2.848 33.172C3.096 33.396 3.432 33.508 3.856 33.508C4.2 33.508 4.5 33.428 4.756 33.268C5.02 33.1 5.228 32.872 5.38 32.584C5.532 32.296 5.608 31.968 5.608 31.6V30.232C5.608 29.696 5.5 29.308 5.284 29.068C5.068 28.82 4.724 28.696 4.252 28.696C3.948 28.696 3.652 28.736 3.364 28.816C3.084 28.896 2.784 29.024 2.464 29.2C2.376 29.248 2.296 29.264 2.224 29.248C2.16 29.232 2.108 29.2 2.068 29.152C2.036 29.104 2.012 29.048 1.996 28.984C1.988 28.912 2 28.844 2.032 28.78C2.064 28.716 2.12 28.664 2.2 28.624C2.536 28.44 2.876 28.304 3.22 28.216C3.572 28.12 3.912 28.072 4.24 28.072C4.712 28.072 5.1 28.152 5.404 28.312C5.716 28.472 5.944 28.712 6.088 29.032C6.24 29.352 6.316 29.764 6.316 30.268V33.7C6.316 33.82 6.288 33.912 6.232 33.976C6.176 34.04 6.092 34.072 5.98 34.072C5.868 34.072 5.78 34.04 5.716 33.976C5.652 33.912 5.62 33.82 5.62 33.7V32.596H5.74C5.668 32.908 5.54 33.176 5.356 33.4C5.172 33.624 4.944 33.796 4.672 33.916C4.4 34.036 4.096 34.096 3.76 34.096ZM11.625 36.232C11.505 36.232 11.413 36.2 11.349 36.136C11.285 36.072 11.253 35.98 11.253 35.86V28.48C11.253 28.352 11.285 28.256 11.349 28.192C11.413 28.128 11.505 28.096 11.625 28.096C11.737 28.096 11.825 28.128 11.889 28.192C11.953 28.256 11.985 28.352 11.985 28.48V29.704L11.853 29.632C11.989 29.152 12.249 28.772 12.633 28.492C13.017 28.212 13.481 28.072 14.025 28.072C14.545 28.072 14.997 28.196 15.381 28.444C15.773 28.692 16.073 29.04 16.281 29.488C16.497 29.936 16.605 30.468 16.605 31.084C16.605 31.7 16.497 32.236 16.281 32.692C16.073 33.14 15.777 33.488 15.393 33.736C15.009 33.976 14.553 34.096 14.025 34.096C13.481 34.096 13.017 33.956 12.633 33.676C12.249 33.396 11.989 33.024 11.853 32.56H11.985V35.86C11.985 35.98 11.953 36.072 11.889 36.136C11.825 36.2 11.737 36.232 11.625 36.232ZM13.917 33.484C14.309 33.484 14.649 33.392 14.937 33.208C15.233 33.016 15.461 32.74 15.621 32.38C15.781 32.02 15.861 31.588 15.861 31.084C15.861 30.324 15.685 29.736 15.333 29.32C14.981 28.904 14.509 28.696 13.917 28.696C13.525 28.696 13.181 28.792 12.885 28.984C12.597 29.168 12.373 29.44 12.213 29.8C12.053 30.152 11.973 30.58 11.973 31.084C11.973 31.852 12.149 32.444 12.501 32.86C12.853 33.276 13.325 33.484 13.917 33.484ZM20.6873 34.096C20.0873 34.096 19.5713 33.976 19.1393 33.736C18.7073 33.496 18.3753 33.152 18.1433 32.704C17.9113 32.256 17.7953 31.724 17.7953 31.108C17.7953 30.5 17.9113 29.972 18.1433 29.524C18.3753 29.068 18.6953 28.712 19.1033 28.456C19.5193 28.2 19.9953 28.072 20.5313 28.072C20.9233 28.072 21.2673 28.14 21.5633 28.276C21.8673 28.404 22.1233 28.592 22.3313 28.84C22.5473 29.08 22.7113 29.376 22.8233 29.728C22.9353 30.072 22.9913 30.464 22.9913 30.904C22.9913 31.016 22.9593 31.1 22.8953 31.156C22.8393 31.212 22.7593 31.24 22.6553 31.24H18.3233V30.7H22.5353L22.3433 30.856C22.3433 30.392 22.2753 30 22.1393 29.68C22.0033 29.352 21.7993 29.1 21.5273 28.924C21.2633 28.748 20.9353 28.66 20.5433 28.66C20.1033 28.66 19.7313 28.764 19.4273 28.972C19.1233 29.172 18.8953 29.452 18.7433 29.812C18.5913 30.164 18.5153 30.572 18.5153 31.036V31.096C18.5153 31.864 18.7033 32.456 19.0793 32.872C19.4553 33.28 19.9833 33.484 20.6633 33.484C20.9593 33.484 21.2433 33.444 21.5153 33.364C21.7953 33.284 22.0673 33.148 22.3313 32.956C22.4113 32.9 22.4873 32.872 22.5593 32.872C22.6393 32.872 22.7033 32.892 22.7513 32.932C22.8073 32.972 22.8433 33.024 22.8593 33.088C22.8833 33.144 22.8793 33.208 22.8473 33.28C22.8233 33.344 22.7713 33.404 22.6913 33.46C22.4353 33.668 22.1273 33.828 21.7673 33.94C21.4073 34.044 21.0473 34.096 20.6873 34.096ZM24.8554 34.072C24.7354 34.072 24.6434 34.04 24.5794 33.976C24.5154 33.912 24.4834 33.82 24.4834 33.7V28.48C24.4834 28.352 24.5154 28.256 24.5794 28.192C24.6434 28.128 24.7354 28.096 24.8554 28.096C24.9674 28.096 25.0514 28.128 25.1074 28.192C25.1714 28.256 25.2034 28.352 25.2034 28.48V29.548H25.0834C25.2274 29.076 25.4834 28.712 25.8514 28.456C26.2274 28.2 26.6754 28.068 27.1954 28.06C27.2914 28.052 27.3714 28.072 27.4354 28.12C27.4994 28.168 27.5314 28.244 27.5314 28.348C27.5394 28.46 27.5154 28.548 27.4594 28.612C27.4034 28.668 27.3114 28.704 27.1834 28.72L27.0154 28.732C26.4474 28.788 26.0074 28.976 25.6954 29.296C25.3834 29.616 25.2274 30.048 25.2274 30.592V33.7C25.2274 33.82 25.1954 33.912 25.1314 33.976C25.0754 34.04 24.9834 34.072 24.8554 34.072ZM30.4224 34.096C30.0624 34.096 29.7024 34.048 29.3424 33.952C28.9904 33.856 28.6544 33.692 28.3344 33.46C28.2704 33.42 28.2264 33.372 28.2024 33.316C28.1864 33.252 28.1824 33.188 28.1904 33.124C28.2064 33.06 28.2344 33.008 28.2744 32.968C28.3224 32.92 28.3784 32.892 28.4424 32.884C28.5064 32.876 28.5744 32.896 28.6464 32.944C28.9584 33.152 29.2624 33.296 29.5584 33.376C29.8544 33.456 30.1504 33.496 30.4464 33.496C30.9344 33.496 31.3064 33.404 31.5624 33.22C31.8184 33.036 31.9464 32.788 31.9464 32.476C31.9464 32.22 31.8624 32.024 31.6944 31.888C31.5344 31.744 31.2704 31.628 30.9024 31.54L29.8584 31.3C29.3544 31.188 28.9824 31.008 28.7424 30.76C28.5024 30.504 28.3824 30.176 28.3824 29.776C28.3824 29.432 28.4704 29.132 28.6464 28.876C28.8304 28.62 29.0864 28.424 29.4144 28.288C29.7504 28.144 30.1344 28.072 30.5664 28.072C30.9184 28.072 31.2544 28.124 31.5744 28.228C31.8944 28.332 32.1744 28.492 32.4144 28.708C32.4784 28.756 32.5184 28.812 32.5344 28.876C32.5584 28.94 32.5584 29.004 32.5344 29.068C32.5184 29.124 32.4864 29.172 32.4384 29.212C32.3904 29.252 32.3344 29.272 32.2704 29.272C32.2064 29.272 32.1384 29.248 32.0664 29.2C31.8344 29.024 31.5904 28.896 31.3344 28.816C31.0784 28.728 30.8184 28.684 30.5544 28.684C30.0904 28.684 29.7304 28.78 29.4744 28.972C29.2264 29.164 29.1024 29.424 29.1024 29.752C29.1024 30 29.1784 30.2 29.3304 30.352C29.4904 30.504 29.7384 30.62 30.0744 30.7L31.1184 30.94C31.6384 31.06 32.0264 31.24 32.2824 31.48C32.5384 31.712 32.6664 32.028 32.6664 32.428C32.6664 32.94 32.4624 33.348 32.0544 33.652C31.6544 33.948 31.1104 34.096 30.4224 34.096ZM36.5729 34.096C36.0289 34.096 35.5569 33.972 35.1569 33.724C34.7569 33.476 34.4449 33.128 34.2209 32.68C34.0049 32.232 33.8969 31.7 33.8969 31.084C33.8969 30.628 33.9569 30.216 34.0769 29.848C34.2049 29.48 34.3849 29.164 34.6169 28.9C34.8569 28.628 35.1409 28.424 35.4689 28.288C35.8049 28.144 36.1729 28.072 36.5729 28.072C37.1249 28.072 37.6009 28.196 38.0009 28.444C38.4009 28.692 38.7089 29.044 38.9249 29.5C39.1489 29.948 39.2609 30.476 39.2609 31.084C39.2609 31.548 39.1969 31.964 39.0689 32.332C38.9489 32.7 38.7689 33.016 38.5289 33.28C38.2969 33.544 38.0169 33.748 37.6889 33.892C37.3609 34.028 36.9889 34.096 36.5729 34.096ZM36.5729 33.484C36.9729 33.484 37.3169 33.392 37.6049 33.208C37.9009 33.016 38.1249 32.74 38.2769 32.38C38.4369 32.02 38.5169 31.588 38.5169 31.084C38.5169 30.324 38.3409 29.736 37.9889 29.32C37.6449 28.904 37.1729 28.696 36.5729 28.696C36.1809 28.696 35.8369 28.792 35.5409 28.984C35.2529 29.168 35.0289 29.44 34.8689 29.8C34.7169 30.152 34.6409 30.58 34.6409 31.084C34.6409 31.852 34.8169 32.444 35.1689 32.86C35.5209 33.276 35.9889 33.484 36.5729 33.484ZM41.1914 34.072C41.0714 34.072 40.9794 34.04 40.9154 33.976C40.8514 33.912 40.8194 33.82 40.8194 33.7V28.48C40.8194 28.352 40.8514 28.256 40.9154 28.192C40.9794 28.128 41.0714 28.096 41.1914 28.096C41.3034 28.096 41.3874 28.128 41.4434 28.192C41.5074 28.256 41.5394 28.352 41.5394 28.48V29.608L41.4074 29.536C41.5674 29.056 41.8394 28.692 42.2234 28.444C42.6154 28.196 43.0634 28.072 43.5674 28.072C44.0314 28.072 44.4154 28.156 44.7194 28.324C45.0314 28.484 45.2634 28.732 45.4154 29.068C45.5674 29.404 45.6434 29.824 45.6434 30.328V33.7C45.6434 33.82 45.6114 33.912 45.5474 33.976C45.4834 34.04 45.3954 34.072 45.2834 34.072C45.1634 34.072 45.0714 34.04 45.0074 33.976C44.9434 33.912 44.9114 33.82 44.9114 33.7V30.388C44.9114 29.804 44.7954 29.38 44.5634 29.116C44.3314 28.844 43.9634 28.708 43.4594 28.708C42.8834 28.708 42.4194 28.888 42.0674 29.248C41.7234 29.6 41.5514 30.076 41.5514 30.676V33.7C41.5514 33.948 41.4314 34.072 41.1914 34.072ZM49.3342 34.096C48.9422 34.096 48.5902 34.02 48.2782 33.868C47.9742 33.716 47.7302 33.508 47.5462 33.244C47.3702 32.98 47.2822 32.684 47.2822 32.356C47.2822 31.924 47.3902 31.584 47.6062 31.336C47.8222 31.088 48.1862 30.916 48.6982 30.82C49.2102 30.716 49.9142 30.664 50.8102 30.664H51.3262V31.204H50.8222C50.1022 31.204 49.5382 31.236 49.1302 31.3C48.7302 31.356 48.4502 31.464 48.2902 31.624C48.1302 31.784 48.0502 32.008 48.0502 32.296C48.0502 32.656 48.1742 32.948 48.4222 33.172C48.6702 33.396 49.0062 33.508 49.4302 33.508C49.7742 33.508 50.0742 33.428 50.3302 33.268C50.5942 33.1 50.8022 32.872 50.9542 32.584C51.1062 32.296 51.1822 31.968 51.1822 31.6V30.232C51.1822 29.696 51.0742 29.308 50.8582 29.068C50.6422 28.82 50.2982 28.696 49.8262 28.696C49.5222 28.696 49.2262 28.736 48.9382 28.816C48.6582 28.896 48.3582 29.024 48.0382 29.2C47.9502 29.248 47.8702 29.264 47.7982 29.248C47.7342 29.232 47.6822 29.2 47.6422 29.152C47.6102 29.104 47.5862 29.048 47.5702 28.984C47.5622 28.912 47.5742 28.844 47.6062 28.78C47.6382 28.716 47.6942 28.664 47.7742 28.624C48.1102 28.44 48.4502 28.304 48.7942 28.216C49.1462 28.12 49.4862 28.072 49.8142 28.072C50.2862 28.072 50.6742 28.152 50.9782 28.312C51.2902 28.472 51.5182 28.712 51.6622 29.032C51.8142 29.352 51.8902 29.764 51.8902 30.268V33.7C51.8902 33.82 51.8622 33.912 51.8062 33.976C51.7502 34.04 51.6662 34.072 51.5542 34.072C51.4422 34.072 51.3542 34.04 51.2902 33.976C51.2262 33.912 51.1942 33.82 51.1942 33.7V32.596H51.3142C51.2422 32.908 51.1142 33.176 50.9302 33.4C50.7462 33.624 50.5182 33.796 50.2462 33.916C49.9742 34.036 49.6702 34.096 49.3342 34.096ZM55.4838 34.096C54.9478 34.096 54.5318 33.928 54.2358 33.592C53.9478 33.256 53.8038 32.78 53.8038 32.164V25.84C53.8038 25.712 53.8358 25.62 53.8998 25.564C53.9638 25.5 54.0558 25.468 54.1758 25.468C54.2878 25.468 54.3758 25.5 54.4398 25.564C54.5038 25.62 54.5358 25.712 54.5358 25.84V32.08C54.5358 32.544 54.6278 32.892 54.8118 33.124C54.9958 33.348 55.2638 33.46 55.6158 33.46C55.6958 33.46 55.7638 33.456 55.8198 33.448C55.8758 33.44 55.9318 33.436 55.9878 33.436C56.0598 33.428 56.1118 33.444 56.1438 33.484C56.1838 33.516 56.2038 33.588 56.2038 33.7C56.2038 33.812 56.1758 33.896 56.1198 33.952C56.0638 34.008 55.9718 34.048 55.8438 34.072C55.7878 34.08 55.7278 34.084 55.6638 34.084C55.6078 34.092 55.5478 34.096 55.4838 34.096ZM57.5976 34.048C57.4776 34.048 57.3856 34.012 57.3216 33.94C57.2576 33.868 57.2256 33.772 57.2256 33.652V28.516C57.2256 28.388 57.2576 28.292 57.3216 28.228C57.3856 28.164 57.4776 28.132 57.5976 28.132C57.7096 28.132 57.7976 28.164 57.8616 28.228C57.9256 28.292 57.9576 28.388 57.9576 28.516V33.652C57.9576 33.772 57.9256 33.868 57.8616 33.94C57.8056 34.012 57.7176 34.048 57.5976 34.048ZM57.5976 26.68C57.4296 26.68 57.2976 26.636 57.2016 26.548C57.1136 26.46 57.0696 26.336 57.0696 26.176C57.0696 26.016 57.1136 25.896 57.2016 25.816C57.2976 25.728 57.4296 25.684 57.5976 25.684C57.7656 25.684 57.8936 25.728 57.9816 25.816C58.0776 25.896 58.1256 26.016 58.1256 26.176C58.1256 26.336 58.0776 26.46 57.9816 26.548C57.8936 26.636 57.7656 26.68 57.5976 26.68ZM59.8978 34C59.8178 34 59.7498 33.984 59.6938 33.952C59.6458 33.912 59.6098 33.864 59.5858 33.808C59.5698 33.744 59.5698 33.676 59.5858 33.604C59.6098 33.524 59.6538 33.448 59.7178 33.376L63.2338 28.564V28.768H59.8498C59.7458 28.768 59.6658 28.744 59.6098 28.696C59.5618 28.64 59.5378 28.564 59.5378 28.468C59.5378 28.38 59.5618 28.312 59.6098 28.264C59.6658 28.208 59.7458 28.18 59.8498 28.18H63.5938C63.6898 28.18 63.7658 28.2 63.8218 28.24C63.8858 28.272 63.9258 28.316 63.9418 28.372C63.9658 28.428 63.9698 28.492 63.9538 28.564C63.9378 28.636 63.9018 28.708 63.8458 28.78L60.2818 33.628V33.412H63.8218C64.0298 33.412 64.1338 33.508 64.1338 33.7C64.1338 33.796 64.1058 33.872 64.0498 33.928C63.9938 33.976 63.9178 34 63.8218 34H59.8978ZM67.8084 34.096C67.2084 34.096 66.6924 33.976 66.2604 33.736C65.8284 33.496 65.4964 33.152 65.2644 32.704C65.0324 32.256 64.9164 31.724 64.9164 31.108C64.9164 30.5 65.0324 29.972 65.2644 29.524C65.4964 29.068 65.8164 28.712 66.2244 28.456C66.6404 28.2 67.1164 28.072 67.6524 28.072C68.0444 28.072 68.3884 28.14 68.6844 28.276C68.9884 28.404 69.2444 28.592 69.4524 28.84C69.6684 29.08 69.8324 29.376 69.9444 29.728C70.0564 30.072 70.1124 30.464 70.1124 30.904C70.1124 31.016 70.0804 31.1 70.0164 31.156C69.9604 31.212 69.8804 31.24 69.7764 31.24H65.4444V30.7H69.6564L69.4644 30.856C69.4644 30.392 69.3964 30 69.2604 29.68C69.1244 29.352 68.9204 29.1 68.6484 28.924C68.3844 28.748 68.0564 28.66 67.6644 28.66C67.2244 28.66 66.8524 28.764 66.5484 28.972C66.2444 29.172 66.0164 29.452 65.8644 29.812C65.7124 30.164 65.6364 30.572 65.6364 31.036V31.096C65.6364 31.864 65.8244 32.456 66.2004 32.872C66.5764 33.28 67.1044 33.484 67.7844 33.484C68.0804 33.484 68.3644 33.444 68.6364 33.364C68.9164 33.284 69.1884 33.148 69.4524 32.956C69.5324 32.9 69.6084 32.872 69.6804 32.872C69.7604 32.872 69.8244 32.892 69.8724 32.932C69.9284 32.972 69.9644 33.024 69.9804 33.088C70.0044 33.144 70.0004 33.208 69.9684 33.28C69.9444 33.344 69.8924 33.404 69.8124 33.46C69.5564 33.668 69.2484 33.828 68.8884 33.94C68.5284 34.044 68.1684 34.096 67.8084 34.096ZM73.8245 34.096C73.3045 34.096 72.8485 33.976 72.4565 33.736C72.0725 33.488 71.7725 33.14 71.5565 32.692C71.3485 32.236 71.2445 31.7 71.2445 31.084C71.2445 30.468 71.3485 29.936 71.5565 29.488C71.7645 29.04 72.0605 28.692 72.4445 28.444C72.8365 28.196 73.2965 28.072 73.8245 28.072C74.3685 28.072 74.8325 28.212 75.2165 28.492C75.6005 28.772 75.8565 29.148 75.9845 29.62H75.8525V25.84C75.8525 25.712 75.8845 25.62 75.9485 25.564C76.0125 25.5 76.1005 25.468 76.2125 25.468C76.3325 25.468 76.4245 25.5 76.4885 25.564C76.5525 25.62 76.5845 25.712 76.5845 25.84V33.7C76.5845 33.82 76.5525 33.912 76.4885 33.976C76.4245 34.04 76.3365 34.072 76.2245 34.072C76.1045 34.072 76.0125 34.04 75.9485 33.976C75.8845 33.912 75.8525 33.82 75.8525 33.7V32.464L75.9845 32.548C75.8565 33.02 75.6005 33.396 75.2165 33.676C74.8325 33.956 74.3685 34.096 73.8245 34.096ZM73.9205 33.484C74.3205 33.484 74.6645 33.392 74.9525 33.208C75.2485 33.016 75.4725 32.74 75.6245 32.38C75.7845 32.02 75.8645 31.588 75.8645 31.084C75.8645 30.324 75.6885 29.736 75.3365 29.32C74.9925 28.904 74.5205 28.696 73.9205 28.696C73.5285 28.696 73.1845 28.792 72.8885 28.984C72.6005 29.168 72.3765 29.44 72.2165 29.8C72.0645 30.152 71.9885 30.58 71.9885 31.084C71.9885 31.852 72.1645 32.444 72.5165 32.86C72.8685 33.276 73.3365 33.484 73.9205 33.484ZM81.9023 36.232C81.7823 36.232 81.6903 36.2 81.6263 36.136C81.5623 36.072 81.5303 35.98 81.5303 35.86V28.48C81.5303 28.352 81.5623 28.256 81.6263 28.192C81.6903 28.128 81.7823 28.096 81.9023 28.096C82.0143 28.096 82.1023 28.128 82.1663 28.192C82.2303 28.256 82.2623 28.352 82.2623 28.48V29.704L82.1303 29.632C82.2663 29.152 82.5263 28.772 82.9103 28.492C83.2943 28.212 83.7583 28.072 84.3023 28.072C84.8223 28.072 85.2743 28.196 85.6583 28.444C86.0503 28.692 86.3503 29.04 86.5583 29.488C86.7743 29.936 86.8823 30.468 86.8823 31.084C86.8823 31.7 86.7743 32.236 86.5583 32.692C86.3503 33.14 86.0543 33.488 85.6703 33.736C85.2863 33.976 84.8303 34.096 84.3023 34.096C83.7583 34.096 83.2943 33.956 82.9103 33.676C82.5263 33.396 82.2663 33.024 82.1303 32.56H82.2623V35.86C82.2623 35.98 82.2303 36.072 82.1663 36.136C82.1023 36.2 82.0143 36.232 81.9023 36.232ZM84.1943 33.484C84.5863 33.484 84.9263 33.392 85.2143 33.208C85.5103 33.016 85.7383 32.74 85.8983 32.38C86.0583 32.02 86.1383 31.588 86.1383 31.084C86.1383 30.324 85.9623 29.736 85.6103 29.32C85.2583 28.904 84.7863 28.696 84.1943 28.696C83.8023 28.696 83.4583 28.792 83.1623 28.984C82.8743 29.168 82.6503 29.44 82.4903 29.8C82.3303 30.152 82.2503 30.58 82.2503 31.084C82.2503 31.852 82.4263 32.444 82.7783 32.86C83.1303 33.276 83.6023 33.484 84.1943 33.484ZM90.1127 34.096C89.5767 34.096 89.1607 33.928 88.8647 33.592C88.5767 33.256 88.4327 32.78 88.4327 32.164V25.84C88.4327 25.712 88.4647 25.62 88.5287 25.564C88.5927 25.5 88.6847 25.468 88.8047 25.468C88.9167 25.468 89.0047 25.5 89.0687 25.564C89.1327 25.62 89.1647 25.712 89.1647 25.84V32.08C89.1647 32.544 89.2567 32.892 89.4407 33.124C89.6247 33.348 89.8927 33.46 90.2447 33.46C90.3247 33.46 90.3927 33.456 90.4487 33.448C90.5047 33.44 90.5607 33.436 90.6167 33.436C90.6887 33.428 90.7407 33.444 90.7727 33.484C90.8127 33.516 90.8327 33.588 90.8327 33.7C90.8327 33.812 90.8047 33.896 90.7487 33.952C90.6927 34.008 90.6007 34.048 90.4727 34.072C90.4167 34.08 90.3567 34.084 90.2927 34.084C90.2367 34.092 90.1767 34.096 90.1127 34.096ZM93.6545 34.096C93.2625 34.096 92.9105 34.02 92.5985 33.868C92.2945 33.716 92.0505 33.508 91.8665 33.244C91.6905 32.98 91.6025 32.684 91.6025 32.356C91.6025 31.924 91.7105 31.584 91.9265 31.336C92.1425 31.088 92.5065 30.916 93.0185 30.82C93.5305 30.716 94.2345 30.664 95.1305 30.664H95.6465V31.204H95.1425C94.4225 31.204 93.8585 31.236 93.4505 31.3C93.0505 31.356 92.7705 31.464 92.6105 31.624C92.4505 31.784 92.3705 32.008 92.3705 32.296C92.3705 32.656 92.4945 32.948 92.7425 33.172C92.9905 33.396 93.3265 33.508 93.7505 33.508C94.0945 33.508 94.3945 33.428 94.6505 33.268C94.9145 33.1 95.1225 32.872 95.2745 32.584C95.4265 32.296 95.5025 31.968 95.5025 31.6V30.232C95.5025 29.696 95.3945 29.308 95.1785 29.068C94.9625 28.82 94.6185 28.696 94.1465 28.696C93.8425 28.696 93.5465 28.736 93.2585 28.816C92.9785 28.896 92.6785 29.024 92.3585 29.2C92.2705 29.248 92.1905 29.264 92.1185 29.248C92.0545 29.232 92.0025 29.2 91.9625 29.152C91.9305 29.104 91.9065 29.048 91.8905 28.984C91.8825 28.912 91.8945 28.844 91.9265 28.78C91.9585 28.716 92.0145 28.664 92.0945 28.624C92.4305 28.44 92.7705 28.304 93.1145 28.216C93.4665 28.12 93.8065 28.072 94.1345 28.072C94.6065 28.072 94.9945 28.152 95.2985 28.312C95.6105 28.472 95.8385 28.712 95.9825 29.032C96.1345 29.352 96.2105 29.764 96.2105 30.268V33.7C96.2105 33.82 96.1825 33.912 96.1265 33.976C96.0705 34.04 95.9865 34.072 95.8745 34.072C95.7625 34.072 95.6745 34.04 95.6105 33.976C95.5465 33.912 95.5145 33.82 95.5145 33.7V32.596H95.6345C95.5625 32.908 95.4345 33.176 95.2505 33.4C95.0665 33.624 94.8385 33.796 94.5665 33.916C94.2945 34.036 93.9905 34.096 93.6545 34.096ZM98.4961 34.072C98.3761 34.072 98.2841 34.04 98.2201 33.976C98.1561 33.912 98.1241 33.82 98.1241 33.7V28.48C98.1241 28.352 98.1561 28.256 98.2201 28.192C98.2841 28.128 98.3761 28.096 98.4961 28.096C98.6081 28.096 98.6921 28.128 98.7481 28.192C98.8121 28.256 98.8441 28.352 98.8441 28.48V29.608L98.7121 29.536C98.8721 29.056 99.1441 28.692 99.5281 28.444C99.9201 28.196 100.368 28.072 100.872 28.072C101.336 28.072 101.72 28.156 102.024 28.324C102.336 28.484 102.568 28.732 102.72 29.068C102.872 29.404 102.948 29.824 102.948 30.328V33.7C102.948 33.82 102.916 33.912 102.852 33.976C102.788 34.04 102.7 34.072 102.588 34.072C102.468 34.072 102.376 34.04 102.312 33.976C102.248 33.912 102.216 33.82 102.216 33.7V30.388C102.216 29.804 102.1 29.38 101.868 29.116C101.636 28.844 101.268 28.708 100.764 28.708C100.188 28.708 99.7241 28.888 99.3721 29.248C99.0281 29.6 98.8561 30.076 98.8561 30.676V33.7C98.8561 33.948 98.7361 34.072 98.4961 34.072Z" fill="#666666"/>
<line x1="1.45312" y1="60.2812" x2="328" y2="60.2812" stroke="#D2CFDF"/>
<line x1="1.45312" y1="100.123" x2="328" y2="100.123" stroke="#D2CFDF"/>
<line x1="1.45312" y1="139.965" x2="328" y2="139.965" stroke="#D2CFDF"/>
<line x1="1.45312" y1="179.811" x2="328" y2="179.811" stroke="#D2CFDF"/>
<rect x="16.6403" y="137.668" width="43.0464" height="41.9466" rx="5.26559" fill="#A9DEF4"/>
<rect x="79.9358" y="117.328" width="43.0464" height="62.2844" rx="5.26559" fill="#9CC9DC"/>
<rect x="143.247" y="95.7168" width="43.0464" height="83.8933" rx="5.26559" fill="#69A8C2"/>
<rect x="206.542" y="75.3809" width="43.0464" height="104.231" rx="5.26559" fill="#5190AA"/>
<rect x="269.854" y="53.7734" width="43.0464" height="125.84" rx="5.26559" fill="#31728D"/>
<path d="M38.1633 140.209C143.245 123.093 211.611 102.982 292.638 53.7734" stroke="#111111" stroke-width="2.10624"/>
<ellipse cx="37.7465" cy="138.616" rx="13.6064" ry="13.6606" fill="white"/>
<ellipse cx="291.882" cy="54.8207" rx="13.6064" ry="13.6606" fill="white"/>
<ellipse cx="291.885" cy="54.818" rx="9.07094" ry="9.10705" fill="#31728D"/>
<ellipse cx="37.75" cy="138.711" rx="9.07094" ry="9.10705" fill="#A9DEF4"/>
<g filter="url(#filter0_d_988_343)">
<rect x="17.9059" y="93.1777" width="40.8192" height="27.3212" rx="4.71576" fill="white" shape-rendering="crispEdges"/>
<path d="M31.881 110.934C31.633 110.934 31.441 110.866 31.305 110.73C31.177 110.586 31.113 110.386 31.113 110.13V106.482L31.437 107.406L28.545 103.338C28.441 103.194 28.393 103.042 28.401 102.882C28.417 102.714 28.485 102.574 28.605 102.462C28.725 102.342 28.893 102.282 29.109 102.282C29.269 102.282 29.413 102.322 29.541 102.402C29.677 102.482 29.805 102.606 29.925 102.774L32.073 105.822H31.737L33.897 102.774C34.025 102.598 34.149 102.474 34.269 102.402C34.389 102.322 34.537 102.282 34.713 102.282C34.921 102.282 35.081 102.338 35.193 102.45C35.313 102.554 35.373 102.686 35.373 102.846C35.381 103.006 35.325 103.174 35.205 103.35L32.337 107.406L32.649 106.482V110.13C32.649 110.666 32.393 110.934 31.881 110.934ZM38.0508 110.958C37.4428 110.958 36.9148 110.834 36.4668 110.586C36.0188 110.338 35.6708 109.986 35.4228 109.53C35.1748 109.066 35.0508 108.522 35.0508 107.898C35.0508 107.426 35.1188 107.006 35.2548 106.638C35.3988 106.262 35.6028 105.942 35.8668 105.678C36.1308 105.406 36.4468 105.202 36.8148 105.066C37.1828 104.922 37.5948 104.85 38.0508 104.85C38.6588 104.85 39.1868 104.974 39.6348 105.222C40.0828 105.47 40.4308 105.822 40.6788 106.278C40.9268 106.734 41.0508 107.274 41.0508 107.898C41.0508 108.37 40.9788 108.794 40.8348 109.17C40.6988 109.546 40.4988 109.87 40.2348 110.142C39.9708 110.406 39.6548 110.61 39.2868 110.754C38.9188 110.89 38.5068 110.958 38.0508 110.958ZM38.0508 109.818C38.3468 109.818 38.6068 109.746 38.8308 109.602C39.0548 109.458 39.2268 109.246 39.3468 108.966C39.4748 108.678 39.5388 108.322 39.5388 107.898C39.5388 107.258 39.4028 106.782 39.1308 106.47C38.8588 106.15 38.4988 105.99 38.0508 105.99C37.7548 105.99 37.4948 106.062 37.2708 106.206C37.0468 106.342 36.8708 106.554 36.7428 106.842C36.6228 107.122 36.5628 107.474 36.5628 107.898C36.5628 108.53 36.6988 109.01 36.9708 109.338C37.2428 109.658 37.6028 109.818 38.0508 109.818ZM44.4129 110.958C43.9249 110.958 43.5209 110.87 43.2009 110.694C42.8809 110.51 42.6409 110.238 42.4809 109.878C42.3289 109.518 42.2529 109.07 42.2529 108.534V105.63C42.2529 105.374 42.3169 105.186 42.4449 105.066C42.5729 104.938 42.7569 104.874 42.9969 104.874C43.2369 104.874 43.4209 104.938 43.5489 105.066C43.6849 105.186 43.7529 105.374 43.7529 105.63V108.558C43.7529 108.974 43.8369 109.282 44.0049 109.482C44.1729 109.682 44.4409 109.782 44.8089 109.782C45.2089 109.782 45.5369 109.646 45.7929 109.374C46.0489 109.094 46.1769 108.726 46.1769 108.27V105.63C46.1769 105.374 46.2409 105.186 46.3689 105.066C46.4969 104.938 46.6809 104.874 46.9209 104.874C47.1609 104.874 47.3449 104.938 47.4729 105.066C47.6089 105.186 47.6769 105.374 47.6769 105.63V110.166C47.6769 110.678 47.4329 110.934 46.9449 110.934C46.7129 110.934 46.5329 110.87 46.4049 110.742C46.2769 110.606 46.2129 110.414 46.2129 110.166V109.254L46.3809 109.614C46.2129 110.046 45.9569 110.378 45.6129 110.61C45.2769 110.842 44.8769 110.958 44.4129 110.958Z" fill="#111111"/>
</g>
<path d="M17.999 198.069C17.783 198.069 17.607 198.017 17.471 197.913C17.343 197.809 17.239 197.645 17.159 197.421L14.651 190.329C14.563 190.073 14.579 189.857 14.699 189.681C14.827 189.505 15.039 189.417 15.335 189.417C15.551 189.417 15.719 189.469 15.839 189.573C15.959 189.669 16.055 189.825 16.127 190.041L18.287 196.449H17.807L20.063 190.053C20.143 189.837 20.243 189.677 20.363 189.573C20.483 189.469 20.639 189.417 20.831 189.417C21.023 189.417 21.175 189.469 21.287 189.573C21.399 189.677 21.495 189.841 21.575 190.065L23.759 196.449H23.339L25.535 190.041C25.607 189.833 25.703 189.677 25.823 189.573C25.943 189.469 26.107 189.417 26.315 189.417C26.571 189.417 26.759 189.505 26.879 189.681C26.999 189.857 27.015 190.073 26.927 190.329L24.395 197.433C24.315 197.649 24.211 197.809 24.083 197.913C23.955 198.017 23.783 198.069 23.567 198.069C23.351 198.069 23.179 198.017 23.051 197.913C22.923 197.809 22.819 197.645 22.739 197.421L20.651 191.469H20.927L18.815 197.433C18.735 197.649 18.631 197.809 18.503 197.913C18.383 198.017 18.215 198.069 17.999 198.069ZM29.1984 197.973C28.9344 197.973 28.7304 197.905 28.5864 197.769C28.4504 197.625 28.3824 197.421 28.3824 197.157V190.329C28.3824 190.065 28.4504 189.865 28.5864 189.729C28.7304 189.585 28.9344 189.513 29.1984 189.513H33.4824C33.6824 189.513 33.8344 189.565 33.9384 189.669C34.0504 189.773 34.1064 189.921 34.1064 190.113C34.1064 190.313 34.0504 190.469 33.9384 190.581C33.8344 190.685 33.6824 190.737 33.4824 190.737H29.8584V193.065H33.2184C33.4264 193.065 33.5824 193.117 33.6864 193.221C33.7904 193.325 33.8424 193.477 33.8424 193.677C33.8424 193.877 33.7904 194.029 33.6864 194.133C33.5824 194.237 33.4264 194.289 33.2184 194.289H29.8584V196.749H33.4824C33.6824 196.749 33.8344 196.801 33.9384 196.905C34.0504 197.009 34.1064 197.161 34.1064 197.361C34.1064 197.561 34.0504 197.713 33.9384 197.817C33.8344 197.921 33.6824 197.973 33.4824 197.973H29.1984ZM36.3585 197.973C36.0945 197.973 35.8905 197.905 35.7465 197.769C35.6105 197.625 35.5425 197.421 35.5425 197.157V190.329C35.5425 190.065 35.6105 189.865 35.7465 189.729C35.8905 189.585 36.0945 189.513 36.3585 189.513H40.6425C40.8425 189.513 40.9945 189.565 41.0985 189.669C41.2105 189.773 41.2665 189.921 41.2665 190.113C41.2665 190.313 41.2105 190.469 41.0985 190.581C40.9945 190.685 40.8425 190.737 40.6425 190.737H37.0185V193.065H40.3785C40.5865 193.065 40.7425 193.117 40.8465 193.221C40.9505 193.325 41.0025 193.477 41.0025 193.677C41.0025 193.877 40.9505 194.029 40.8465 194.133C40.7425 194.237 40.5865 194.289 40.3785 194.289H37.0185V196.749H40.6425C40.8425 196.749 40.9945 196.801 41.0985 196.905C41.2105 197.009 41.2665 197.161 41.2665 197.361C41.2665 197.561 41.2105 197.713 41.0985 197.817C40.9945 197.921 40.8425 197.973 40.6425 197.973H36.3585ZM43.4707 198.069C43.2227 198.069 43.0307 198.001 42.8947 197.865C42.7667 197.721 42.7027 197.525 42.7027 197.277V190.197C42.7027 189.941 42.7667 189.749 42.8947 189.621C43.0307 189.485 43.2227 189.417 43.4707 189.417C43.7187 189.417 43.9067 189.485 44.0347 189.621C44.1707 189.749 44.2387 189.941 44.2387 190.197V193.257H44.2627L47.7067 189.801C47.8347 189.673 47.9627 189.577 48.0907 189.513C48.2187 189.449 48.3627 189.417 48.5227 189.417C48.7547 189.417 48.9187 189.477 49.0147 189.597C49.1187 189.717 49.1587 189.857 49.1347 190.017C49.1187 190.177 49.0427 190.325 48.9067 190.461L45.4027 193.929L45.4147 193.233L49.0747 196.953C49.2427 197.113 49.3307 197.281 49.3387 197.457C49.3467 197.633 49.2907 197.781 49.1707 197.901C49.0587 198.013 48.8907 198.069 48.6667 198.069C48.4747 198.069 48.3187 198.029 48.1987 197.949C48.0867 197.869 47.9547 197.753 47.8027 197.601L44.2627 194.061H44.2387V197.277C44.2387 197.525 44.1747 197.721 44.0467 197.865C43.9187 198.001 43.7267 198.069 43.4707 198.069ZM54.889 197.973C54.681 197.973 54.517 197.917 54.397 197.805C54.285 197.685 54.229 197.525 54.229 197.325C54.229 197.117 54.285 196.961 54.397 196.857C54.517 196.753 54.681 196.701 54.889 196.701H56.233V190.809H56.977L55.213 191.877C55.061 191.965 54.917 192.001 54.781 191.985C54.653 191.961 54.541 191.905 54.445 191.817C54.357 191.721 54.297 191.609 54.265 191.481C54.233 191.353 54.241 191.225 54.289 191.097C54.345 190.961 54.449 190.849 54.601 190.761L56.257 189.765C56.417 189.669 56.577 189.589 56.737 189.525C56.897 189.453 57.045 189.417 57.181 189.417C57.349 189.417 57.489 189.465 57.601 189.561C57.713 189.649 57.769 189.797 57.769 190.005V196.701H58.993C59.201 196.701 59.361 196.753 59.473 196.857C59.593 196.961 59.653 197.117 59.653 197.325C59.653 197.533 59.593 197.693 59.473 197.805C59.361 197.917 59.201 197.973 58.993 197.973H54.889Z" fill="#111111"/>
<path d="M274.04 197.883C273.824 197.883 273.648 197.831 273.512 197.727C273.384 197.623 273.28 197.459 273.2 197.235L270.692 190.143C270.604 189.887 270.62 189.671 270.74 189.495C270.868 189.319 271.08 189.231 271.376 189.231C271.592 189.231 271.76 189.283 271.88 189.387C272 189.483 272.096 189.639 272.168 189.855L274.328 196.263H273.848L276.104 189.867C276.184 189.651 276.284 189.491 276.404 189.387C276.524 189.283 276.68 189.231 276.872 189.231C277.064 189.231 277.216 189.283 277.328 189.387C277.44 189.491 277.536 189.655 277.616 189.879L279.8 196.263H279.38L281.576 189.855C281.648 189.647 281.744 189.491 281.864 189.387C281.984 189.283 282.148 189.231 282.356 189.231C282.612 189.231 282.8 189.319 282.92 189.495C283.04 189.671 283.056 189.887 282.968 190.143L280.436 197.247C280.356 197.463 280.252 197.623 280.124 197.727C279.996 197.831 279.824 197.883 279.608 197.883C279.392 197.883 279.22 197.831 279.092 197.727C278.964 197.623 278.86 197.459 278.78 197.235L276.692 191.283H276.968L274.856 197.247C274.776 197.463 274.672 197.623 274.544 197.727C274.424 197.831 274.256 197.883 274.04 197.883ZM285.24 197.787C284.976 197.787 284.772 197.719 284.628 197.583C284.492 197.439 284.424 197.235 284.424 196.971V190.143C284.424 189.879 284.492 189.679 284.628 189.543C284.772 189.399 284.976 189.327 285.24 189.327H289.524C289.724 189.327 289.876 189.379 289.98 189.483C290.092 189.587 290.148 189.735 290.148 189.927C290.148 190.127 290.092 190.283 289.98 190.395C289.876 190.499 289.724 190.551 289.524 190.551H285.9V192.879H289.26C289.468 192.879 289.624 192.931 289.728 193.035C289.832 193.139 289.884 193.291 289.884 193.491C289.884 193.691 289.832 193.843 289.728 193.947C289.624 194.051 289.468 194.103 289.26 194.103H285.9V196.563H289.524C289.724 196.563 289.876 196.615 289.98 196.719C290.092 196.823 290.148 196.975 290.148 197.175C290.148 197.375 290.092 197.527 289.98 197.631C289.876 197.735 289.724 197.787 289.524 197.787H285.24ZM292.4 197.787C292.136 197.787 291.932 197.719 291.788 197.583C291.652 197.439 291.584 197.235 291.584 196.971V190.143C291.584 189.879 291.652 189.679 291.788 189.543C291.932 189.399 292.136 189.327 292.4 189.327H296.684C296.884 189.327 297.036 189.379 297.14 189.483C297.252 189.587 297.308 189.735 297.308 189.927C297.308 190.127 297.252 190.283 297.14 190.395C297.036 190.499 296.884 190.551 296.684 190.551H293.06V192.879H296.42C296.628 192.879 296.784 192.931 296.888 193.035C296.992 193.139 297.044 193.291 297.044 193.491C297.044 193.691 296.992 193.843 296.888 193.947C296.784 194.051 296.628 194.103 296.42 194.103H293.06V196.563H296.684C296.884 196.563 297.036 196.615 297.14 196.719C297.252 196.823 297.308 196.975 297.308 197.175C297.308 197.375 297.252 197.527 297.14 197.631C297.036 197.735 296.884 197.787 296.684 197.787H292.4ZM299.512 197.883C299.264 197.883 299.072 197.815 298.936 197.679C298.808 197.535 298.744 197.339 298.744 197.091V190.011C298.744 189.755 298.808 189.563 298.936 189.435C299.072 189.299 299.264 189.231 299.512 189.231C299.76 189.231 299.948 189.299 300.076 189.435C300.212 189.563 300.28 189.755 300.28 190.011V193.071H300.304L303.748 189.615C303.876 189.487 304.004 189.391 304.132 189.327C304.26 189.263 304.404 189.231 304.564 189.231C304.796 189.231 304.96 189.291 305.056 189.411C305.16 189.531 305.2 189.671 305.176 189.831C305.16 189.991 305.084 190.139 304.948 190.275L301.444 193.743L301.456 193.047L305.116 196.767C305.284 196.927 305.372 197.095 305.38 197.271C305.388 197.447 305.332 197.595 305.212 197.715C305.1 197.827 304.932 197.883 304.708 197.883C304.516 197.883 304.36 197.843 304.24 197.763C304.128 197.683 303.996 197.567 303.844 197.415L300.304 193.875H300.28V197.091C300.28 197.339 300.216 197.535 300.088 197.679C299.96 197.815 299.768 197.883 299.512 197.883ZM314.014 197.883C313.774 197.883 313.586 197.819 313.45 197.691C313.314 197.555 313.246 197.363 313.246 197.115V196.179H310.282C310.034 196.179 309.834 196.127 309.682 196.023C309.538 195.919 309.466 195.755 309.466 195.531C309.466 195.403 309.498 195.263 309.562 195.111C309.634 194.959 309.758 194.759 309.934 194.511L313.222 189.747C313.334 189.579 313.458 189.451 313.594 189.363C313.73 189.275 313.886 189.231 314.062 189.231C314.27 189.231 314.442 189.295 314.578 189.423C314.714 189.543 314.782 189.735 314.782 189.999V194.907H315.37C315.602 194.907 315.774 194.963 315.886 195.075C316.006 195.179 316.066 195.335 316.066 195.543C316.066 195.751 316.006 195.911 315.886 196.023C315.774 196.127 315.602 196.179 315.37 196.179H314.782V197.115C314.782 197.363 314.714 197.555 314.578 197.691C314.442 197.819 314.254 197.883 314.014 197.883ZM313.246 194.907V191.163H313.594L310.762 195.315V194.907H313.246Z" fill="#111111"/>
<g filter="url(#filter1_d_988_343)">
<rect x="269.854" y="9.2832" width="42.726" height="27.1681" rx="4.71576" fill="white" shape-rendering="crispEdges"/>
<path d="M283.136 26.9872C282.2 26.9872 281.408 26.8112 280.76 26.4592C280.12 26.1072 279.632 25.6072 279.296 24.9592C278.96 24.3112 278.792 23.5432 278.792 22.6552C278.792 21.9832 278.888 21.3792 279.08 20.8432C279.28 20.3072 279.564 19.8512 279.932 19.4752C280.308 19.0912 280.764 18.7992 281.3 18.5992C281.836 18.3912 282.444 18.2872 283.124 18.2872C283.572 18.2872 284.02 18.3432 284.468 18.4552C284.924 18.5592 285.352 18.7392 285.752 18.9952C285.888 19.0832 285.976 19.1912 286.016 19.3192C286.064 19.4472 286.072 19.5792 286.04 19.7152C286.008 19.8432 285.948 19.9552 285.86 20.0512C285.772 20.1472 285.66 20.2072 285.524 20.2312C285.396 20.2552 285.252 20.2232 285.092 20.1352C284.788 19.9592 284.48 19.8312 284.168 19.7512C283.856 19.6712 283.508 19.6312 283.124 19.6312C282.532 19.6312 282.032 19.7512 281.624 19.9912C281.216 20.2232 280.908 20.5632 280.7 21.0112C280.5 21.4592 280.4 22.0072 280.4 22.6552C280.4 23.6392 280.636 24.3872 281.108 24.8992C281.58 25.4112 282.28 25.6672 283.208 25.6672C283.528 25.6672 283.852 25.6352 284.18 25.5712C284.508 25.5072 284.828 25.4192 285.14 25.3072L284.84 25.9912V23.4352H283.52C283.32 23.4352 283.164 23.3832 283.052 23.2792C282.948 23.1752 282.896 23.0352 282.896 22.8592C282.896 22.6752 282.948 22.5352 283.052 22.4392C283.164 22.3432 283.32 22.2952 283.52 22.2952H285.5C285.7 22.2952 285.852 22.3512 285.956 22.4632C286.068 22.5672 286.124 22.7192 286.124 22.9192V25.8352C286.124 26.0112 286.088 26.1592 286.016 26.2792C285.952 26.3992 285.844 26.4872 285.692 26.5432C285.34 26.6712 284.936 26.7792 284.48 26.8672C284.024 26.9472 283.576 26.9872 283.136 26.9872ZM290.436 26.9872C289.828 26.9872 289.3 26.8632 288.852 26.6152C288.404 26.3672 288.056 26.0152 287.808 25.5592C287.56 25.0952 287.436 24.5512 287.436 23.9272C287.436 23.4552 287.504 23.0352 287.64 22.6672C287.784 22.2912 287.988 21.9712 288.252 21.7072C288.516 21.4352 288.832 21.2312 289.2 21.0952C289.568 20.9512 289.98 20.8792 290.436 20.8792C291.044 20.8792 291.572 21.0032 292.02 21.2512C292.468 21.4992 292.816 21.8512 293.064 22.3072C293.312 22.7632 293.436 23.3032 293.436 23.9272C293.436 24.3992 293.364 24.8232 293.22 25.1992C293.084 25.5752 292.884 25.8992 292.62 26.1712C292.356 26.4352 292.04 26.6392 291.672 26.7832C291.304 26.9192 290.892 26.9872 290.436 26.9872ZM290.436 25.8472C290.732 25.8472 290.992 25.7752 291.216 25.6312C291.44 25.4872 291.612 25.2752 291.732 24.9952C291.86 24.7072 291.924 24.3512 291.924 23.9272C291.924 23.2872 291.788 22.8112 291.516 22.4992C291.244 22.1792 290.884 22.0192 290.436 22.0192C290.14 22.0192 289.88 22.0912 289.656 22.2352C289.432 22.3712 289.256 22.5832 289.128 22.8712C289.008 23.1512 288.948 23.5032 288.948 23.9272C288.948 24.5592 289.084 25.0392 289.356 25.3672C289.628 25.6872 289.988 25.8472 290.436 25.8472ZM296.606 26.9872C296.182 26.9872 295.802 26.9072 295.466 26.7472C295.138 26.5792 294.878 26.3552 294.686 26.0752C294.502 25.7952 294.41 25.4792 294.41 25.1272C294.41 24.6952 294.522 24.3552 294.746 24.1072C294.97 23.8512 295.334 23.6672 295.838 23.5552C296.342 23.4432 297.018 23.3872 297.866 23.3872H298.466V24.2512H297.878C297.382 24.2512 296.986 24.2752 296.69 24.3232C296.394 24.3712 296.182 24.4552 296.054 24.5752C295.934 24.6872 295.874 24.8472 295.874 25.0552C295.874 25.3192 295.966 25.5352 296.15 25.7032C296.334 25.8712 296.59 25.9552 296.918 25.9552C297.182 25.9552 297.414 25.8952 297.614 25.7752C297.822 25.6472 297.986 25.4752 298.106 25.2592C298.226 25.0432 298.286 24.7952 298.286 24.5152V23.1352C298.286 22.7352 298.198 22.4472 298.022 22.2712C297.846 22.0952 297.55 22.0072 297.134 22.0072C296.902 22.0072 296.65 22.0352 296.378 22.0912C296.114 22.1472 295.834 22.2432 295.538 22.3792C295.386 22.4512 295.25 22.4712 295.13 22.4392C295.018 22.4072 294.93 22.3432 294.866 22.2472C294.802 22.1432 294.77 22.0312 294.77 21.9112C294.77 21.7912 294.802 21.6752 294.866 21.5632C294.93 21.4432 295.038 21.3552 295.19 21.2992C295.558 21.1472 295.91 21.0392 296.246 20.9752C296.59 20.9112 296.902 20.8792 297.182 20.8792C297.758 20.8792 298.23 20.9672 298.598 21.1432C298.974 21.3192 299.254 21.5872 299.438 21.9472C299.622 22.2992 299.714 22.7552 299.714 23.3152V26.1952C299.714 26.4432 299.654 26.6352 299.534 26.7712C299.414 26.8992 299.242 26.9632 299.018 26.9632C298.794 26.9632 298.618 26.8992 298.49 26.7712C298.37 26.6352 298.31 26.4432 298.31 26.1952V25.6192H298.406C298.35 25.8992 298.238 26.1432 298.07 26.3512C297.91 26.5512 297.706 26.7072 297.458 26.8192C297.21 26.9312 296.926 26.9872 296.606 26.9872ZM303.241 26.9872C302.577 26.9872 302.077 26.7992 301.741 26.4232C301.405 26.0392 301.237 25.4792 301.237 24.7432V19.0672C301.237 18.8192 301.301 18.6312 301.429 18.5032C301.557 18.3752 301.741 18.3112 301.981 18.3112C302.221 18.3112 302.405 18.3752 302.533 18.5032C302.669 18.6312 302.737 18.8192 302.737 19.0672V24.6712C302.737 25.0392 302.813 25.3112 302.965 25.4872C303.125 25.6632 303.349 25.7512 303.637 25.7512C303.701 25.7512 303.761 25.7512 303.817 25.7512C303.873 25.7432 303.929 25.7352 303.985 25.7272C304.097 25.7112 304.173 25.7432 304.213 25.8232C304.253 25.8952 304.273 26.0472 304.273 26.2792C304.273 26.4792 304.233 26.6352 304.153 26.7472C304.073 26.8592 303.941 26.9272 303.757 26.9512C303.677 26.9592 303.593 26.9672 303.505 26.9752C303.417 26.9832 303.329 26.9872 303.241 26.9872Z" fill="#111111"/>
</g>
<defs>
<filter id="filter0_d_988_343" x="7.3747" y="84.7528" width="61.8816" height="48.3835" filterUnits="userSpaceOnUse" color-interpolation-filters="sRGB">
<feFlood flood-opacity="0" result="BackgroundImageFix"/>
<feColorMatrix in="SourceAlpha" type="matrix" values="0 0 0 0 0 0 0 0 0 0 0 0 0 0 0 0 0 0 127 0" result="hardAlpha"/>
<feOffset dy="2.10624"/>
<feGaussianBlur stdDeviation="5.26559"/>
<feComposite in2="hardAlpha" operator="out"/>
<feColorMatrix type="matrix" values="0 0 0 0 0 0 0 0 0 0 0 0 0 0 0 0 0 0 0.15 0"/>
<feBlend mode="normal" in2="BackgroundImageFix" result="effect1_dropShadow_988_343"/>
<feBlend mode="normal" in="SourceGraphic" in2="effect1_dropShadow_988_343" result="shape"/>
</filter>
<filter id="filter1_d_988_343" x="259.322" y="0.858259" width="63.7884" height="48.2305" filterUnits="userSpaceOnUse" color-interpolation-filters="sRGB">
<feFlood flood-opacity="0" result="BackgroundImageFix"/>
<feColorMatrix in="SourceAlpha" type="matrix" values="0 0 0 0 0 0 0 0 0 0 0 0 0 0 0 0 0 0 127 0" result="hardAlpha"/>
<feOffset dy="2.10624"/>
<feGaussianBlur stdDeviation="5.26559"/>
<feComposite in2="hardAlpha" operator="out"/>
<feColorMatrix type="matrix" values="0 0 0 0 0 0 0 0 0 0 0 0 0 0 0 0 0 0 0.15 0"/>
<feBlend mode="normal" in2="BackgroundImageFix" result="effect1_dropShadow_988_343"/>
<feBlend mode="normal" in="SourceGraphic" in2="effect1_dropShadow_988_343" result="shape"/>
</filter>
</defs>
</svg>
